0
SECTION
2
HEADER
9
$INSUNITS
70
4
0
ENDSEC
0
SECTION
2
TABLES
0
TABLE
2
LTYPE
0
LTYPE
72
65
70
64
2
CONTINUOUS
3
______
73
0
40
0
0
ENDTAB
0
TABLE
2
LAYER
0
ENDTAB
0
ENDSEC
0
SECTION
2
ENTITIES
0
LINE
8
0
10
69.7
20
-2.525
11
82.7
21
-2.525
0
LINE
8
0
10
69.7
20
-16.525
11
82.7
21
-16.525
0
LINE
8
0
10
69.2
20
-3.025
11
69.2
21
-16.025
0
LINE
8
0
10
83.2
20
-3.025
11
83.2
21
-16.025
0
ARC
8
0
10
69.7
20
-3.025
40
0.5
50
90
51
180
0
ARC
8
0
10
82.7
20
-3.025
40
0.5
50
0
51
90
0
ARC
8
0
10
69.7
20
-16.025
40
0.5
50
180
51
270
0
ARC
8
0
10
82.7
20
-16.025
40
0.5
50
270
51
0
0
LINE
8
0
10
50.65
20
-4.90625
11
63.65
21
-4.90625
0
LINE
8
0
10
50.65
20
-18.90625
11
63.65
21
-18.90625
0
LINE
8
0
10
50.15
20
-5.40625
11
50.15
21
-18.40625
0
LINE
8
0
10
64.15
20
-5.40625
11
64.15
21
-18.40625
0
ARC
8
0
10
50.65
20
-5.40625
40
0.5
50
90
51
180
0
ARC
8
0
10
63.65
20
-5.40625
40
0.5
50
0
51
90
0
ARC
8
0
10
50.65
20
-18.40625
40
0.5
50
180
51
270
0
ARC
8
0
10
63.65
20
-18.40625
40
0.5
50
270
51
0
0
LINE
8
0
10
88.75
20
-4.90625
11
101.75
21
-4.90625
0
LINE
8
0
10
88.75
20
-18.90625
11
101.75
21
-18.90625
0
LINE
8
0
10
88.25
20
-5.40625
11
88.25
21
-18.40625
0
LINE
8
0
10
102.25
20
-5.40625
11
102.25
21
-18.40625
0
ARC
8
0
10
88.75
20
-5.40625
40
0.5
50
90
51
180
0
ARC
8
0
10
101.75
20
-5.40625
40
0.5
50
0
51
90
0
ARC
8
0
10
88.75
20
-18.40625
40
0.5
50
180
51
270
0
ARC
8
0
10
101.75
20
-18.40625
40
0.5
50
270
51
0
0
LINE
8
0
10
107.8
20
-7.2875
11
120.8
21
-7.2875
0
LINE
8
0
10
107.8
20
-21.2875
11
120.8
21
-21.2875
0
LINE
8
0
10
107.3
20
-7.7875
11
107.3
21
-20.7875
0
LINE
8
0
10
121.3
20
-7.7875
11
121.3
21
-20.7875
0
ARC
8
0
10
107.8
20
-7.7875
40
0.5
50
90
51
180
0
ARC
8
0
10
120.8
20
-7.7875
40
0.5
50
0
51
90
0
ARC
8
0
10
107.8
20
-20.7875
40
0.5
50
180
51
270
0
ARC
8
0
10
120.8
20
-20.7875
40
0.5
50
270
51
0
0
LINE
8
0
10
31.6
20
-9.66875
11
44.6
21
-9.66875
0
LINE
8
0
10
31.6
20
-23.66875
11
44.6
21
-23.66875
0
LINE
8
0
10
31.1
20
-10.16875
11
31.1
21
-23.16875
0
LINE
8
0
10
45.1
20
-10.16875
11
45.1
21
-23.16875
0
ARC
8
0
10
31.6
20
-10.16875
40
0.5
50
90
51
180
0
ARC
8
0
10
44.6
20
-10.16875
40
0.5
50
0
51
90
0
ARC
8
0
10
31.6
20
-23.16875
40
0.5
50
180
51
270
0
ARC
8
0
10
44.6
20
-23.16875
40
0.5
50
270
51
0
0
LINE
8
0
10
12.55
20
-9.764
11
25.55
21
-9.764
0
LINE
8
0
10
12.55
20
-23.764
11
25.55
21
-23.764
0
LINE
8
0
10
12.05
20
-10.264
11
12.05
21
-23.264
0
LINE
8
0
10
26.05
20
-10.264
11
26.05
21
-23.264
0
ARC
8
0
10
12.55
20
-10.264
40
0.5
50
90
51
180
0
ARC
8
0
10
25.55
20
-10.264
40
0.5
50
0
51
90
0
ARC
8
0
10
12.55
20
-23.264
40
0.5
50
180
51
270
0
ARC
8
0
10
25.55
20
-23.264
40
0.5
50
270
51
0
0
LINE
8
0
10
69.7
20
-21.575
11
82.7
21
-21.575
0
LINE
8
0
10
69.7
20
-35.575
11
82.7
21
-35.575
0
LINE
8
0
10
69.2
20
-22.075
11
69.2
21
-35.075
0
LINE
8
0
10
83.2
20
-22.075
11
83.2
21
-35.075
0
ARC
8
0
10
69.7
20
-22.075
40
0.5
50
90
51
180
0
ARC
8
0
10
82.7
20
-22.075
40
0.5
50
0
51
90
0
ARC
8
0
10
69.7
20
-35.075
40
0.5
50
180
51
270
0
ARC
8
0
10
82.7
20
-35.075
40
0.5
50
270
51
0
0
LINE
8
0
10
50.65
20
-23.95625
11
63.65
21
-23.95625
0
LINE
8
0
10
50.65
20
-37.95625
11
63.65
21
-37.95625
0
LINE
8
0
10
50.15
20
-24.45625
11
50.15
21
-37.45625
0
LINE
8
0
10
64.15
20
-24.45625
11
64.15
21
-37.45625
0
ARC
8
0
10
50.65
20
-24.45625
40
0.5
50
90
51
180
0
ARC
8
0
10
63.65
20
-24.45625
40
0.5
50
0
51
90
0
ARC
8
0
10
50.65
20
-37.45625
40
0.5
50
180
51
270
0
ARC
8
0
10
63.65
20
-37.45625
40
0.5
50
270
51
0
0
LINE
8
0
10
88.75
20
-23.95625
11
101.75
21
-23.95625
0
LINE
8
0
10
88.75
20
-37.95625
11
101.75
21
-37.95625
0
LINE
8
0
10
88.25
20
-24.45625
11
88.25
21
-37.45625
0
LINE
8
0
10
102.25
20
-24.45625
11
102.25
21
-37.45625
0
ARC
8
0
10
88.75
20
-24.45625
40
0.5
50
90
51
180
0
ARC
8
0
10
101.75
20
-24.45625
40
0.5
50
0
51
90
0
ARC
8
0
10
88.75
20
-37.45625
40
0.5
50
180
51
270
0
ARC
8
0
10
101.75
20
-37.45625
40
0.5
50
270
51
0
0
LINE
8
0
10
107.8
20
-26.3375
11
120.8
21
-26.3375
0
LINE
8
0
10
107.8
20
-40.3375
11
120.8
21
-40.3375
0
LINE
8
0
10
107.3
20
-26.8375
11
107.3
21
-39.8375
0
LINE
8
0
10
121.3
20
-26.8375
11
121.3
21
-39.8375
0
ARC
8
0
10
107.8
20
-26.8375
40
0.5
50
90
51
180
0
ARC
8
0
10
120.8
20
-26.8375
40
0.5
50
0
51
90
0
ARC
8
0
10
107.8
20
-39.8375
40
0.5
50
180
51
270
0
ARC
8
0
10
120.8
20
-39.8375
40
0.5
50
270
51
0
0
LINE
8
0
10
31.6
20
-28.71875
11
44.6
21
-28.71875
0
LINE
8
0
10
31.6
20
-42.71875
11
44.6
21
-42.71875
0
LINE
8
0
10
31.1
20
-29.21875
11
31.1
21
-42.21875
0
LINE
8
0
10
45.1
20
-29.21875
11
45.1
21
-42.21875
0
ARC
8
0
10
31.6
20
-29.21875
40
0.5
50
90
51
180
0
ARC
8
0
10
44.6
20
-29.21875
40
0.5
50
0
51
90
0
ARC
8
0
10
31.6
20
-42.21875
40
0.5
50
180
51
270
0
ARC
8
0
10
44.6
20
-42.21875
40
0.5
50
270
51
0
0
LINE
8
0
10
12.55
20
-28.814
11
25.55
21
-28.814
0
LINE
8
0
10
12.55
20
-42.814
11
25.55
21
-42.814
0
LINE
8
0
10
12.05
20
-29.314
11
12.05
21
-42.314
0
LINE
8
0
10
26.05
20
-29.314
11
26.05
21
-42.314
0
ARC
8
0
10
12.55
20
-29.314
40
0.5
50
90
51
180
0
ARC
8
0
10
25.55
20
-29.314
40
0.5
50
0
51
90
0
ARC
8
0
10
12.55
20
-42.314
40
0.5
50
180
51
270
0
ARC
8
0
10
25.55
20
-42.314
40
0.5
50
270
51
0
0
LINE
8
0
10
69.7
20
-40.625
11
82.7
21
-40.625
0
LINE
8
0
10
69.7
20
-54.625
11
82.7
21
-54.625
0
LINE
8
0
10
69.2
20
-41.125
11
69.2
21
-54.125
0
LINE
8
0
10
83.2
20
-41.125
11
83.2
21
-54.125
0
ARC
8
0
10
69.7
20
-41.125
40
0.5
50
90
51
180
0
ARC
8
0
10
82.7
20
-41.125
40
0.5
50
0
51
90
0
ARC
8
0
10
69.7
20
-54.125
40
0.5
50
180
51
270
0
ARC
8
0
10
82.7
20
-54.125
40
0.5
50
270
51
0
0
LINE
8
0
10
50.65
20
-43.00625
11
63.65
21
-43.00625
0
LINE
8
0
10
50.65
20
-57.00625
11
63.65
21
-57.00625
0
LINE
8
0
10
50.15
20
-43.50625
11
50.15
21
-56.50625
0
LINE
8
0
10
64.15
20
-43.50625
11
64.15
21
-56.50625
0
ARC
8
0
10
50.65
20
-43.50625
40
0.5
50
90
51
180
0
ARC
8
0
10
63.65
20
-43.50625
40
0.5
50
0
51
90
0
ARC
8
0
10
50.65
20
-56.50625
40
0.5
50
180
51
270
0
ARC
8
0
10
63.65
20
-56.50625
40
0.5
50
270
51
0
0
LINE
8
0
10
88.75
20
-43.00625
11
101.75
21
-43.00625
0
LINE
8
0
10
88.75
20
-57.00625
11
101.75
21
-57.00625
0
LINE
8
0
10
88.25
20
-43.50625
11
88.25
21
-56.50625
0
LINE
8
0
10
102.25
20
-43.50625
11
102.25
21
-56.50625
0
ARC
8
0
10
88.75
20
-43.50625
40
0.5
50
90
51
180
0
ARC
8
0
10
101.75
20
-43.50625
40
0.5
50
0
51
90
0
ARC
8
0
10
88.75
20
-56.50625
40
0.5
50
180
51
270
0
ARC
8
0
10
101.75
20
-56.50625
40
0.5
50
270
51
0
0
LINE
8
0
10
107.8
20
-45.3875
11
120.8
21
-45.3875
0
LINE
8
0
10
107.8
20
-59.3875
11
120.8
21
-59.3875
0
LINE
8
0
10
107.3
20
-45.8875
11
107.3
21
-58.8875
0
LINE
8
0
10
121.3
20
-45.8875
11
121.3
21
-58.8875
0
ARC
8
0
10
107.8
20
-45.8875
40
0.5
50
90
51
180
0
ARC
8
0
10
120.8
20
-45.8875
40
0.5
50
0
51
90
0
ARC
8
0
10
107.8
20
-58.8875
40
0.5
50
180
51
270
0
ARC
8
0
10
120.8
20
-58.8875
40
0.5
50
270
51
0
0
LINE
8
0
10
31.6
20
-47.76875
11
44.6
21
-47.76875
0
LINE
8
0
10
31.6
20
-61.76875
11
44.6
21
-61.76875
0
LINE
8
0
10
31.1
20
-48.26875
11
31.1
21
-61.26875
0
LINE
8
0
10
45.1
20
-48.26875
11
45.1
21
-61.26875
0
ARC
8
0
10
31.6
20
-48.26875
40
0.5
50
90
51
180
0
ARC
8
0
10
44.6
20
-48.26875
40
0.5
50
0
51
90
0
ARC
8
0
10
31.6
20
-61.26875
40
0.5
50
180
51
270
0
ARC
8
0
10
44.6
20
-61.26875
40
0.5
50
270
51
0
0
LINE
8
0
10
12.55
20
-47.864
11
25.55
21
-47.864
0
LINE
8
0
10
12.55
20
-61.864
11
25.55
21
-61.864
0
LINE
8
0
10
12.05
20
-48.364
11
12.05
21
-61.364
0
LINE
8
0
10
26.05
20
-48.364
11
26.05
21
-61.364
0
ARC
8
0
10
12.55
20
-48.364
40
0.5
50
90
51
180
0
ARC
8
0
10
25.55
20
-48.364
40
0.5
50
0
51
90
0
ARC
8
0
10
12.55
20
-61.364
40
0.5
50
180
51
270
0
ARC
8
0
10
25.55
20
-61.364
40
0.5
50
270
51
0
0
LINE
8
0
10
69.7
20
-59.675
11
82.7
21
-59.675
0
LINE
8
0
10
69.7
20
-73.675
11
82.7
21
-73.675
0
LINE
8
0
10
69.2
20
-60.175
11
69.2
21
-73.175
0
LINE
8
0
10
83.2
20
-60.175
11
83.2
21
-73.175
0
ARC
8
0
10
69.7
20
-60.175
40
0.5
50
90
51
180
0
ARC
8
0
10
82.7
20
-60.175
40
0.5
50
0
51
90
0
ARC
8
0
10
69.7
20
-73.175
40
0.5
50
180
51
270
0
ARC
8
0
10
82.7
20
-73.175
40
0.5
50
270
51
0
0
LINE
8
0
10
50.65
20
-62.05625
11
63.65
21
-62.05625
0
LINE
8
0
10
50.65
20
-76.05625
11
63.65
21
-76.05625
0
LINE
8
0
10
50.15
20
-62.55625
11
50.15
21
-75.55625
0
LINE
8
0
10
64.15
20
-62.55625
11
64.15
21
-75.55625
0
ARC
8
0
10
50.65
20
-62.55625
40
0.5
50
90
51
180
0
ARC
8
0
10
63.65
20
-62.55625
40
0.5
50
0
51
90
0
ARC
8
0
10
50.65
20
-75.55625
40
0.5
50
180
51
270
0
ARC
8
0
10
63.65
20
-75.55625
40
0.5
50
270
51
0
0
LINE
8
0
10
88.75
20
-62.05625
11
101.75
21
-62.05625
0
LINE
8
0
10
88.75
20
-76.05625
11
101.75
21
-76.05625
0
LINE
8
0
10
88.25
20
-62.55625
11
88.25
21
-75.55625
0
LINE
8
0
10
102.25
20
-62.55625
11
102.25
21
-75.55625
0
ARC
8
0
10
88.75
20
-62.55625
40
0.5
50
90
51
180
0
ARC
8
0
10
101.75
20
-62.55625
40
0.5
50
0
51
90
0
ARC
8
0
10
88.75
20
-75.55625
40
0.5
50
180
51
270
0
ARC
8
0
10
101.75
20
-75.55625
40
0.5
50
270
51
0
0
LINE
8
0
10
107.8
20
-64.4375
11
120.8
21
-64.4375
0
LINE
8
0
10
107.8
20
-78.4375
11
120.8
21
-78.4375
0
LINE
8
0
10
107.3
20
-64.9375
11
107.3
21
-77.9375
0
LINE
8
0
10
121.3
20
-64.9375
11
121.3
21
-77.9375
0
ARC
8
0
10
107.8
20
-64.9375
40
0.5
50
90
51
180
0
ARC
8
0
10
120.8
20
-64.9375
40
0.5
50
0
51
90
0
ARC
8
0
10
107.8
20
-77.9375
40
0.5
50
180
51
270
0
ARC
8
0
10
120.8
20
-77.9375
40
0.5
50
270
51
0
0
LINE
8
0
10
31.6
20
-66.81875
11
44.6
21
-66.81875
0
LINE
8
0
10
31.6
20
-80.81875
11
44.6
21
-80.81875
0
LINE
8
0
10
31.1
20
-67.31875
11
31.1
21
-80.31875
0
LINE
8
0
10
45.1
20
-67.31875
11
45.1
21
-80.31875
0
ARC
8
0
10
31.6
20
-67.31875
40
0.5
50
90
51
180
0
ARC
8
0
10
44.6
20
-67.31875
40
0.5
50
0
51
90
0
ARC
8
0
10
31.6
20
-80.31875
40
0.5
50
180
51
270
0
ARC
8
0
10
44.6
20
-80.31875
40
0.5
50
270
51
0
0
LINE
8
0
10
12.55
20
-66.914
11
25.55
21
-66.914
0
LINE
8
0
10
12.55
20
-80.914
11
25.55
21
-80.914
0
LINE
8
0
10
12.05
20
-67.414
11
12.05
21
-80.414
0
LINE
8
0
10
26.05
20
-67.414
11
26.05
21
-80.414
0
ARC
8
0
10
12.55
20
-67.414
40
0.5
50
90
51
180
0
ARC
8
0
10
25.55
20
-67.414
40
0.5
50
0
51
90
0
ARC
8
0
10
12.55
20
-80.414
40
0.5
50
180
51
270
0
ARC
8
0
10
25.55
20
-80.414
40
0.5
50
270
51
0
0
LINE
8
0
10
111.6819299
20
-85.5956936
11
124.5850299
21
-87.1799951
0
LINE
8
0
10
109.9757591
20
-99.4913397
11
122.8788591
21
-101.0756412
0
LINE
8
0
10
111.1247222
20
-86.031032
11
109.5404207
21
-98.934132
0
LINE
8
0
10
125.0203683
20
-87.7372028
11
123.4360668
21
-100.6403028
0
ARC
8
0
10
111.6209952
20
-86.0919667
40
0.5
50
83
51
173
0
ARC
8
0
10
124.5240952
20
-87.6762681
40
0.5
50
353
51
83
0
ARC
8
0
10
110.0366938
20
-98.9950667
40
0.5
50
173
51
263
0
ARC
8
0
10
122.9397938
20
-100.5793681
40
0.5
50
263
51
353
0
LINE
8
0
10
134.9498945
20
-71.6672021
11
147.789843
21
-73.7008501
0
LINE
8
0
10
132.759812
20
-85.4948389
11
145.5997605
21
-87.5284869
0
LINE
8
0
10
134.3778331
20
-72.082829
11
132.3441851
21
-84.9227775
0
LINE
8
0
10
148.2054699
20
-74.2729115
11
146.1718219
21
-87.11286
0
ARC
8
0
10
134.8716773
20
-72.1610463
40
0.5
50
81
51
171
0
ARC
8
0
10
147.7116257
20
-74.1946943
40
0.5
50
351
51
81
0
ARC
8
0
10
132.8380293
20
-85.0009947
40
0.5
50
171
51
261
0
ARC
8
0
10
145.6779777
20
-87.0346427
40
0.5
50
261
51
351
0
LINE
8
0
10
131.6420095
20
-92.5523659
11
144.481958
21
-94.5860139
0
LINE
8
0
10
129.451927
20
-106.3800027
11
142.2918755
21
-108.4136507
0
LINE
8
0
10
131.0699481
20
-92.9679928
11
129.0363001
21
-105.8079413
0
LINE
8
0
10
144.8975849
20
-95.1580753
11
142.8639369
21
-107.9980238
0
ARC
8
0
10
131.5637923
20
-93.0462101
40
0.5
50
81
51
171
0
ARC
8
0
10
144.4037407
20
-95.0798581
40
0.5
50
351
51
81
0
ARC
8
0
10
129.5301443
20
-105.8861585
40
0.5
50
171
51
261
0
ARC
8
0
10
142.3700927
20
-107.9198065
40
0.5
50
261
51
351
0
LINE
8
0
10
155.2788045
20
-79.5887073
11
168.0399579
21
-82.0692243
0
LINE
8
0
10
152.6074785
20
-93.3314879
11
165.3686319
21
-95.8120049
0
LINE
8
0
10
154.6925864
20
-79.9841164
11
152.2120694
21
-92.7452698
0
LINE
8
0
10
168.435367
20
-82.6554424
11
165.95485
21
-95.4165958
0
ARC
8
0
10
155.1834
20
-80.0795209
40
0.5
50
79
51
169
0
ARC
8
0
10
167.9445534
20
-82.5600379
40
0.5
50
349
51
79
0
ARC
8
0
10
152.702883
20
-92.8406743
40
0.5
50
169
51
259
0
ARC
8
0
10
165.4640364
20
-95.3211913
40
0.5
50
259
51
349
0
LINE
8
0
10
151.1713547
20
-100.7197049
11
163.9325081
21
-103.2002219
0
LINE
8
0
10
148.5000287
20
-114.4624855
11
161.2611821
21
-116.9430025
0
LINE
8
0
10
150.5851366
20
-101.115114
11
148.1046196
21
-113.8762674
0
LINE
8
0
10
164.3279172
20
-103.78644
11
161.8474002
21
-116.5475934
0
ARC
8
0
10
151.0759502
20
-101.2105185
40
0.5
50
79
51
169
0
ARC
8
0
10
163.8371036
20
-103.6910355
40
0.5
50
349
51
79
0
ARC
8
0
10
148.5954332
20
-113.9716719
40
0.5
50
169
51
259
0
ARC
8
0
10
161.3565866
20
-116.4521889
40
0.5
50
259
51
349
0
LINE
8
0
10
9.525
20
-118.3563537
11
169.8487182
21
-118.3563537
0
LINE
8
0
10
9.525
20
0
11
169.8487182
21
0
0
LINE
8
0
10
9.525
20
-118.3563537
11
9.525
21
0
0
LINE
8
0
10
169.8487182
20
-118.3563537
11
169.8487182
21
0
0
ENDSEC
0
EOF